# Blender v3.4.1 OBJ File: 'Resource_PineTree.blend'
# www.blender.org
mtllib pineTreeSingle.mtl
o Resource_PineTree_Cylinder.004
v -0.007819 0.002826 0.029078
v -0.006037 0.002842 -0.029119
v 0.016196 0.370363 -0.008939
v 0.024071 0.003069 -0.000000
v -0.004694 0.370241 0.025805
v -0.042132 0.370027 -0.007014
v 0.039899 0.211691 0.039014
v -0.051043 0.211199 0.062407
v -0.049631 0.211533 -0.077104
v 0.095011 0.112046 -0.106677
v 0.079685 0.099585 0.089097
v -0.112663 0.117016 0.094473
v -0.166036 0.092939 0.000177
v 0.151273 0.096674 -0.000763
v -0.010784 0.214504 0.060133
v -0.008004 0.087652 -0.155107
v -0.077595 0.084555 -0.176563
v 0.023765 0.206197 0.073770
v -0.012860 0.097869 0.165164
v 0.051641 0.086960 0.156064
v -0.114543 0.085611 0.150325
v -0.062034 0.071408 0.174393
v -0.101452 0.211664 0.030119
v -0.168287 0.078793 0.075584
v -0.185477 0.072502 0.053652
v -0.094851 0.214322 -0.000840
v -0.098081 0.212860 -0.043449
v -0.120252 0.110116 -0.122286
v -0.174592 0.080159 -0.089191
v -0.010706 0.215685 -0.065723
v 0.042443 0.072270 -0.169907
v 0.071931 0.071353 -0.166407
v 0.031671 0.210950 -0.063924
v 0.172204 0.076786 -0.051577
v 0.152987 0.078203 -0.090306
v 0.075737 0.214293 -0.010875
v 0.123018 0.089218 0.076637
v 0.153337 0.080054 0.030565
v -0.071163 0.325294 0.000479
v 0.018046 0.324869 -0.051943
v 0.096159 0.211616 0.028230
v -0.037111 0.200790 0.095993
v -0.116963 0.215933 -0.026833
v -0.076892 0.195016 -0.098941
v 0.049687 0.198261 0.106828
v -0.052543 0.326315 0.024501
v 0.086726 0.190423 -0.057921
v 0.073038 0.187733 -0.111649
v -0.045798 0.320344 0.049582
v -0.121700 0.196407 0.066339
v -0.093344 0.190973 0.106547
v -0.133930 0.168951 0.021983
v -0.110875 0.172063 -0.077779
v -0.061876 0.322898 -0.037073
v -0.021345 0.324950 -0.069018
v 0.021889 0.209714 -0.117965
v -0.022860 0.183738 -0.138081
v 0.026107 0.327257 -0.023477
v 0.112946 0.171232 -0.016374
v 0.043754 0.325759 0.002967
v 0.083951 0.169432 0.074668
v 0.024767 0.326735 0.051382
v 0.022094 0.174941 0.103809
v -0.038410 0.404568 -0.039613
v 0.016422 0.394461 -0.007448
v -0.001138 0.322177 0.091217
v -0.095923 0.312647 0.014477
v -0.030982 0.325977 -0.085840
v 0.036053 0.307565 -0.079966
v -0.075135 0.310421 0.082733
v 0.059898 0.303522 0.055548
v 0.095368 0.301153 0.027488
v -0.058318 0.397600 -0.007434
v -0.102647 0.309773 -0.059533
v -0.121580 0.303681 -0.023740
v -0.070173 0.281991 -0.080803
v 0.008342 0.286704 -0.099224
v -0.006633 0.399246 -0.042184
v 0.082680 0.320484 -0.013018
v 0.084029 0.297699 -0.052776
v 0.037111 0.286038 0.090458
v 0.000103 0.400932 0.034782
v -0.038401 0.281934 0.095296
v -0.039038 0.402710 0.039869
v -0.080732 0.287710 0.060815
v -0.052457 0.475941 0.003515
v -0.013291 0.473864 -0.029363
v 0.047753 0.407534 0.013162
v -0.026304 0.395161 0.055362
v -0.073800 0.402306 -0.014463
v -0.051685 0.389076 -0.055964
v 0.023208 0.396457 0.058444
v 0.041653 0.392190 -0.035465
v -0.064880 0.387978 0.033452
v 0.033104 0.389713 -0.065661
v -0.034357 0.472569 0.029349
v -0.056159 0.383054 0.051069
v -0.080985 0.370651 0.013814
v -0.068912 0.372533 -0.043109
v -0.046082 0.473572 -0.021195
v 0.003714 0.403065 -0.068471
v -0.021797 0.383150 -0.077645
v 0.056128 0.380852 -0.013076
v 0.015032 0.479690 -0.002453
v 0.042311 0.380023 0.039283
v 0.005066 0.479524 0.027944
v 0.008754 0.381117 0.057174
v -0.055535 0.483621 -0.025440
v 0.005505 0.473852 -0.034196
v 0.019814 0.480570 0.024544
v -0.005680 0.465112 0.046789
v -0.027105 0.474200 -0.049946
v -0.043347 0.459610 0.010250
v 0.025384 0.464122 -0.014989
v 0.031755 0.450737 0.006690
v 0.010949 0.449720 0.044728
v -0.046794 0.477618 0.041177
v -0.030617 0.457699 0.052207
v -0.066663 0.456008 -0.009512
v -0.044108 0.458088 -0.040464
v -0.018128 0.460685 -0.045946
v -0.014440 0.613768 0.003507
vn -0.3139 -0.5842 0.7485
vn -0.9439 0.0707 -0.3227
vn -0.2807 -0.5833 -0.7622
vn 0.8642 0.0846 -0.4960
vn -0.1860 0.6232 0.7597
vn -0.2671 0.6326 0.7270
vn -0.3436 0.6489 0.6788
vn -0.6548 0.5640 0.5032
vn -0.8252 0.5320 0.1898
vn -0.7600 0.5741 0.3047
vn -0.8670 0.4962 -0.0465
vn -0.6939 0.5196 0.4985
vn -0.8613 0.5046 -0.0604
vn 0.3458 0.6363 -0.6896
vn 0.5214 0.5973 -0.6094
vn 0.2458 0.6187 -0.7462
vn 0.7403 0.6723 -0.0014
vn 0.8201 0.5424 0.1822
vn 0.7807 0.5997 -0.1757
vn 0.6769 0.5359 0.5046
vn 0.5882 0.4967 0.6381
vn 0.6196 0.5518 0.5582
vn -0.8614 0.4911 0.1297
vn -0.8980 0.3933 -0.1974
vn -0.9262 0.3759 0.0300
vn -0.7511 0.4147 -0.5136
vn -0.5698 0.4111 -0.7115
vn -0.7349 0.3887 -0.5557
vn 0.8941 0.4399 -0.0845
vn 0.8394 0.4521 0.3016
vn 0.8696 0.4373 -0.2293
vn 0.4873 0.4228 0.7641
vn 0.2528 0.4243 0.8695
vn 0.7683 0.3961 0.5027
vn -0.1613 0.3384 0.9271
vn -0.4529 0.4957 0.7411
vn 0.0695 0.3654 0.9283
vn -0.4103 0.5597 -0.7200
vn -0.1843 0.4617 -0.8677
vn -0.3713 0.3808 -0.8469
vn 0.3323 0.5848 -0.7400
vn 0.3749 0.4970 -0.7826
vn 0.2113 0.4641 -0.8602
vn 0.4832 0.5630 0.6705
vn -0.0111 0.5826 0.8127
vn 0.5521 0.5009 0.6666
vn -0.4508 0.4905 0.7458
vn -0.6519 0.5140 0.5576
vn -0.1328 0.4663 0.8746
vn -0.8980 0.3952 0.1936
vn -0.8511 0.5241 0.0325
vn -0.7633 0.4559 0.4576
vn -0.0738 0.3108 0.9476
vn -0.4163 0.3273 0.8483
vn -0.5975 0.3235 0.7337
vn -0.9257 0.3345 0.1765
vn -0.9349 0.2895 -0.2054
vn -0.9141 0.2767 0.2965
vn -0.6794 0.4122 -0.6071
vn -0.6302 0.3308 -0.7024
vn -0.7877 0.2953 -0.5407
vn 0.8629 0.4670 -0.1931
vn 0.8500 0.4461 0.2801
vn 0.8813 0.3944 -0.2604
vn 0.5352 0.3941 0.7471
vn 0.2590 0.3823 0.8870
vn 0.7799 0.3841 0.4943
vn -0.1232 0.2934 0.9480
vn 0.0126 0.9998 0.0166
vn 0.2611 0.2840 0.9226
vn 0.4881 0.2830 0.8257
vn 0.8351 0.2887 0.4682
vn 0.5211 0.2905 -0.8025
vn 0.9092 0.2800 -0.3082
vn 0.9621 0.2724 -0.0101
vn -0.7631 0.3603 -0.5366
vn -0.8273 0.2316 0.5118
vn 0.0124 0.3566 -0.9342
vn -0.5742 0.3220 -0.7527
vn 0.4675 0.2615 -0.8444
vn 0.8213 -0.5703 0.0130
vn 0.1509 0.0317 0.9880
vn -0.0271 0.6273 0.7783
vn 0.1204 0.5865 -0.8009
vn 0.0530 0.5985 -0.7994
vn 0.0651 0.5761 -0.8148
vn -0.7962 0.5508 -0.2502
vn 0.7718 0.5465 0.3250
vn 0.6606 0.6147 -0.4311
vn 0.3985 0.6319 0.6648
vn 0.4774 0.5720 0.6671
vn -0.1211 0.6187 -0.7762
vn -0.7513 0.5855 -0.3046
vn -0.5374 0.5865 -0.6060
vn -0.0795 0.6255 -0.7762
vn -0.0654 0.6684 0.7409
vn -0.8399 0.4573 0.2923
vn 0.8201 0.4327 -0.3743
vn 0.8465 0.4501 -0.2843
vn -0.2223 0.4466 -0.8667
vn 0.6560 0.4963 -0.5686
vn -0.3780 0.4859 0.7880
vn -0.1618 0.4648 -0.8705
vn 0.2397 0.4607 -0.8546
vn 0.6819 0.5042 -0.5300
vn -0.7315 0.5283 0.4310
vn 0.5839 0.5709 0.5772
vn 0.6164 0.6002 -0.5097
vn -0.5629 0.5115 -0.6493
vn 0.7572 0.6516 -0.0456
vn -0.8293 0.5588 -0.0009
vn 0.6204 0.6747 0.3999
vn 0.7332 0.6667 -0.1338
vn 0.8067 0.4688 -0.3599
vn -0.2899 0.4311 -0.8545
vn -0.8263 0.2949 0.4799
vn 0.2125 0.5199 -0.8273
vn 0.6503 0.5735 -0.4983
vn 0.1321 0.5034 -0.8539
vn -0.8826 0.1844 0.4324
vn -0.0219 0.2999 0.9537
vn -0.7535 0.3355 0.5654
usemtl Wood
s 1
f 1//1 6//2 2//3
f 3//4 2//3 6//2
usemtl Green
f 22//5 8//6 21//7
f 8//6 12//8 21//7
f 25//9 23//10 26//11
f 24//12 23//10 25//9
f 26//11 13//13 25//9
f 33//14 10//15 32//16
f 36//17 14//18 34//19
f 7//20 11//21 37//22
f 39//23 43//24 52//25
f 54//26 44//27 53//28
f 60//29 41//30 59//31
f 62//32 45//33 61//34
f 63//35 62//32 49//36
f 49//36 42//37 63//35
f 64//38 68//39 76//40
f 78//41 69//42 77//43
f 82//44 66//45 81//46
f 84//47 70//48 83//49
f 85//50 84//47 73//51
f 73//51 67//52 85//50
f 89//53 96//54 97//55
f 86//56 90//57 98//58
f 100//59 91//60 99//61
f 104//62 88//63 103//64
f 106//65 92//66 105//67
f 107//68 106//65 96//54
f 96//54 89//53 107//68
f 122//69 111//70 116//71
f 116//71 110//72 122//69
f 109//73 122//69 114//74
f 122//69 110//72 115//75
f 122//69 108//76 119//77
f 122//69 112//78 120//79
f 122//69 109//73 121//80
usemtl Wood
f 4//81 1//1 2//3
f 5//82 6//2 1//1
usemtl Green
f 19//83 8//6 22//5
usemtl Wood
f 3//4 4//81 2//3
usemtl Green
f 30//84 31//85 16//86
f 26//11 29//87 13//13
f 12//8 23//10 24//12
f 36//17 38//88 14//18
f 33//14 35//89 10//15
f 11//21 18//90 20//91
f 16//86 9//92 30//84
f 27//93 28//94 29//87
f 9//92 17//95 28//94
f 19//83 20//91 18//90
f 18//90 15//96 19//83
f 33//14 31//85 30//84
f 29//87 26//11 27//93
f 36//17 35//89 33//14
f 36//17 37//22 38//88
f 50//97 39//23 52//25
f 58//98 59//31 47//99
f 54//26 57//100 44//27
f 43//24 54//26 53//28
f 62//32 63//35 45//33
f 60//29 61//34 41//30
f 47//99 40//101 58//98
f 49//36 51//102 42//37
f 55//103 56//104 57//100
f 40//101 48//105 56//104
f 50//97 51//102 49//36
f 49//36 46//106 50//97
f 68//39 78//41 77//43
f 57//100 54//26 55//103
f 59//31 58//98 60//29
f 61//34 60//29 62//32
f 82//44 81//46 71//107
f 78//41 80//108 69//42
f 64//38 76//40 74//109
f 84//47 85//50 70//48
f 82//44 83//49 66//45
f 71//107 65//110 82//44
f 73//51 75//111 67//52
f 90//57 100//59 99//61
f 65//110 72//112 79//113
f 74//109 75//111 73//51
f 73//51 64//38 74//109
f 79//113 80//108 65//110
f 80//108 78//41 65//110
usemtl Wood
f 4//81 5//82 1//1
usemtl Green
f 83//49 82//44 84//47
f 104//62 103//64 93//114
f 100//59 102//115 91//60
f 86//56 98//58 94//116
f 106//65 107//68 92//66
f 104//62 105//67 88//63
f 93//114 87//117 104//62
f 94//116 96//54 86//56
f 87//117 95//118 101//119
f 101//119 102//115 87//117
f 102//115 100//59 87//117
f 105//67 104//62 106//65
f 122//69 119//77 113//120
f 122//69 118//121 111//70
f 122//69 115//75 114//74
f 122//69 121//80 112//78
f 122//69 120//79 108//76
f 122//69 113//120 117//122
f 117//122 118//121 122//69
f 19//83 15//96 8//6
f 12//8 8//6 23//10
f 11//21 7//20 18//90
f 16//86 17//95 9//92
f 27//93 9//92 28//94
f 33//14 32//16 31//85
f 36//17 34//19 35//89
f 36//17 7//20 37//22
f 50//97 46//106 39//23
f 43//24 39//23 54//26
f 47//99 48//105 40//101
f 55//103 40//101 56//104
f 68//39 64//38 78//41
f 71//107 72//112 65//110
f 90//57 86//56 100//59
usemtl Wood
f 4//81 3//4 5//82
usemtl Green
f 93//114 95//118 87//117
f 94//116 97//55 96//54
